<?xml version="1.0" encoding="utf-8" standalone="no"?>
<!DOCTYPE svg PUBLIC "-//W3C//DTD SVG 1.1//EN"
  "http://www.w3.org/Graphics/SVG/1.1/DTD/svg11.dtd">
<!-- Created with matplotlib (https://matplotlib.org/) -->
<svg height="288pt" version="1.1" viewBox="0 0 576 288" width="576pt" xmlns="http://www.w3.org/2000/svg" xmlns:xlink="http://www.w3.org/1999/xlink">
 <defs>
  <style type="text/css">
*{stroke-linecap:butt;stroke-linejoin:round;}
  </style>
 </defs>
 <g id="figure_1">
  <g id="patch_1">
   <path d="M 0 288 
L 576 288 
L 576 0 
L 0 0 
z
" style="fill:#ffffff;"/>
  </g>
  <g id="axes_1">
   <g id="patch_2">
    <path d="M 52.925 246.2 
L 552.317685 246.2 
L 552.317685 26.8 
L 52.925 26.8 
z
" style="fill:#ffffff;"/>
   </g>
   <g id="matplotlib.axis_1">
    <g id="xtick_1">
     <g id="line2d_1">
      <path clip-path="url(#pdbd7d08f2d)" d="M 123.533513 246.2 
L 123.533513 26.8 
" style="fill:none;stroke:#b0b0b0;stroke-linecap:square;stroke-width:0.8;"/>
     </g>
     <g id="line2d_2">
      <defs>
       <path d="M 0 0 
L 0 3.5 
" id="m2f0a270c36" style="stroke:#000000;stroke-width:0.8;"/>
      </defs>
      <g>
       <use style="stroke:#000000;stroke-width:0.8;" x="123.533513" xlink:href="#m2f0a270c36" y="246.2"/>
      </g>
     </g>
     <g id="text_1">
      <!-- 2020-08 -->
      <defs>
       <path d="M 19.1875 8.296875 
L 53.609375 8.296875 
L 53.609375 0 
L 7.328125 0 
L 7.328125 8.296875 
Q 12.9375 14.109375 22.625 23.890625 
Q 32.328125 33.6875 34.8125 36.53125 
Q 39.546875 41.84375 41.421875 45.53125 
Q 43.3125 49.21875 43.3125 52.78125 
Q 43.3125 58.59375 39.234375 62.25 
Q 35.15625 65.921875 28.609375 65.921875 
Q 23.96875 65.921875 18.8125 64.3125 
Q 13.671875 62.703125 7.8125 59.421875 
L 7.8125 69.390625 
Q 13.765625 71.78125 18.9375 73 
Q 24.125 74.21875 28.421875 74.21875 
Q 39.75 74.21875 46.484375 68.546875 
Q 53.21875 62.890625 53.21875 53.421875 
Q 53.21875 48.921875 51.53125 44.890625 
Q 49.859375 40.875 45.40625 35.40625 
Q 44.1875 33.984375 37.640625 27.21875 
Q 31.109375 20.453125 19.1875 8.296875 
z
" id="DejaVuSans-50"/>
       <path d="M 31.78125 66.40625 
Q 24.171875 66.40625 20.328125 58.90625 
Q 16.5 51.421875 16.5 36.375 
Q 16.5 21.390625 20.328125 13.890625 
Q 24.171875 6.390625 31.78125 6.390625 
Q 39.453125 6.390625 43.28125 13.890625 
Q 47.125 21.390625 47.125 36.375 
Q 47.125 51.421875 43.28125 58.90625 
Q 39.453125 66.40625 31.78125 66.40625 
z
M 31.78125 74.21875 
Q 44.046875 74.21875 50.515625 64.515625 
Q 56.984375 54.828125 56.984375 36.375 
Q 56.984375 17.96875 50.515625 8.265625 
Q 44.046875 -1.421875 31.78125 -1.421875 
Q 19.53125 -1.421875 13.0625 8.265625 
Q 6.59375 17.96875 6.59375 36.375 
Q 6.59375 54.828125 13.0625 64.515625 
Q 19.53125 74.21875 31.78125 74.21875 
z
" id="DejaVuSans-48"/>
       <path d="M 4.890625 31.390625 
L 31.203125 31.390625 
L 31.203125 23.390625 
L 4.890625 23.390625 
z
" id="DejaVuSans-45"/>
       <path d="M 31.78125 34.625 
Q 24.75 34.625 20.71875 30.859375 
Q 16.703125 27.09375 16.703125 20.515625 
Q 16.703125 13.921875 20.71875 10.15625 
Q 24.75 6.390625 31.78125 6.390625 
Q 38.8125 6.390625 42.859375 10.171875 
Q 46.921875 13.96875 46.921875 20.515625 
Q 46.921875 27.09375 42.890625 30.859375 
Q 38.875 34.625 31.78125 34.625 
z
M 21.921875 38.8125 
Q 15.578125 40.375 12.03125 44.71875 
Q 8.5 49.078125 8.5 55.328125 
Q 8.5 64.0625 14.71875 69.140625 
Q 20.953125 74.21875 31.78125 74.21875 
Q 42.671875 74.21875 48.875 69.140625 
Q 55.078125 64.0625 55.078125 55.328125 
Q 55.078125 49.078125 51.53125 44.71875 
Q 48 40.375 41.703125 38.8125 
Q 48.828125 37.15625 52.796875 32.3125 
Q 56.78125 27.484375 56.78125 20.515625 
Q 56.78125 9.90625 50.3125 4.234375 
Q 43.84375 -1.421875 31.78125 -1.421875 
Q 19.734375 -1.421875 13.25 4.234375 
Q 6.78125 9.90625 6.78125 20.515625 
Q 6.78125 27.484375 10.78125 32.3125 
Q 14.796875 37.15625 21.921875 38.8125 
z
M 18.3125 54.390625 
Q 18.3125 48.734375 21.84375 45.5625 
Q 25.390625 42.390625 31.78125 42.390625 
Q 38.140625 42.390625 41.71875 45.5625 
Q 45.3125 48.734375 45.3125 54.390625 
Q 45.3125 60.0625 41.71875 63.234375 
Q 38.140625 66.40625 31.78125 66.40625 
Q 25.390625 66.40625 21.84375 63.234375 
Q 18.3125 60.0625 18.3125 54.390625 
z
" id="DejaVuSans-56"/>
      </defs>
      <g transform="translate(102.642107 260.798437)scale(0.1 -0.1)">
       <use xlink:href="#DejaVuSans-50"/>
       <use x="63.623047" xlink:href="#DejaVuSans-48"/>
       <use x="127.246094" xlink:href="#DejaVuSans-50"/>
       <use x="190.869141" xlink:href="#DejaVuSans-48"/>
       <use x="254.492188" xlink:href="#DejaVuSans-45"/>
       <use x="290.576172" xlink:href="#DejaVuSans-48"/>
       <use x="354.199219" xlink:href="#DejaVuSans-56"/>
      </g>
     </g>
    </g>
    <g id="xtick_2">
     <g id="line2d_3">
      <path clip-path="url(#pdbd7d08f2d)" d="M 194.256096 246.2 
L 194.256096 26.8 
" style="fill:none;stroke:#b0b0b0;stroke-linecap:square;stroke-width:0.8;"/>
     </g>
     <g id="line2d_4">
      <g>
       <use style="stroke:#000000;stroke-width:0.8;" x="194.256096" xlink:href="#m2f0a270c36" y="246.2"/>
      </g>
     </g>
     <g id="text_2">
      <!-- 2020-09 -->
      <defs>
       <path d="M 10.984375 1.515625 
L 10.984375 10.5 
Q 14.703125 8.734375 18.5 7.8125 
Q 22.3125 6.890625 25.984375 6.890625 
Q 35.75 6.890625 40.890625 13.453125 
Q 46.046875 20.015625 46.78125 33.40625 
Q 43.953125 29.203125 39.59375 26.953125 
Q 35.25 24.703125 29.984375 24.703125 
Q 19.046875 24.703125 12.671875 31.3125 
Q 6.296875 37.9375 6.296875 49.421875 
Q 6.296875 60.640625 12.9375 67.421875 
Q 19.578125 74.21875 30.609375 74.21875 
Q 43.265625 74.21875 49.921875 64.515625 
Q 56.59375 54.828125 56.59375 36.375 
Q 56.59375 19.140625 48.40625 8.859375 
Q 40.234375 -1.421875 26.421875 -1.421875 
Q 22.703125 -1.421875 18.890625 -0.6875 
Q 15.09375 0.046875 10.984375 1.515625 
z
M 30.609375 32.421875 
Q 37.25 32.421875 41.125 36.953125 
Q 45.015625 41.5 45.015625 49.421875 
Q 45.015625 57.28125 41.125 61.84375 
Q 37.25 66.40625 30.609375 66.40625 
Q 23.96875 66.40625 20.09375 61.84375 
Q 16.21875 57.28125 16.21875 49.421875 
Q 16.21875 41.5 20.09375 36.953125 
Q 23.96875 32.421875 30.609375 32.421875 
z
" id="DejaVuSans-57"/>
      </defs>
      <g transform="translate(173.364689 260.798437)scale(0.1 -0.1)">
       <use xlink:href="#DejaVuSans-50"/>
       <use x="63.623047" xlink:href="#DejaVuSans-48"/>
       <use x="127.246094" xlink:href="#DejaVuSans-50"/>
       <use x="190.869141" xlink:href="#DejaVuSans-48"/>
       <use x="254.492188" xlink:href="#DejaVuSans-45"/>
       <use x="290.576172" xlink:href="#DejaVuSans-48"/>
       <use x="354.199219" xlink:href="#DejaVuSans-57"/>
      </g>
     </g>
    </g>
    <g id="xtick_3">
     <g id="line2d_5">
      <path clip-path="url(#pdbd7d08f2d)" d="M 262.697304 246.2 
L 262.697304 26.8 
" style="fill:none;stroke:#b0b0b0;stroke-linecap:square;stroke-width:0.8;"/>
     </g>
     <g id="line2d_6">
      <g>
       <use style="stroke:#000000;stroke-width:0.8;" x="262.697304" xlink:href="#m2f0a270c36" y="246.2"/>
      </g>
     </g>
     <g id="text_3">
      <!-- 2020-10 -->
      <defs>
       <path d="M 12.40625 8.296875 
L 28.515625 8.296875 
L 28.515625 63.921875 
L 10.984375 60.40625 
L 10.984375 69.390625 
L 28.421875 72.90625 
L 38.28125 72.90625 
L 38.28125 8.296875 
L 54.390625 8.296875 
L 54.390625 0 
L 12.40625 0 
z
" id="DejaVuSans-49"/>
      </defs>
      <g transform="translate(241.805898 260.798437)scale(0.1 -0.1)">
       <use xlink:href="#DejaVuSans-50"/>
       <use x="63.623047" xlink:href="#DejaVuSans-48"/>
       <use x="127.246094" xlink:href="#DejaVuSans-50"/>
       <use x="190.869141" xlink:href="#DejaVuSans-48"/>
       <use x="254.492188" xlink:href="#DejaVuSans-45"/>
       <use x="290.576172" xlink:href="#DejaVuSans-49"/>
       <use x="354.199219" xlink:href="#DejaVuSans-48"/>
      </g>
     </g>
    </g>
    <g id="xtick_4">
     <g id="line2d_7">
      <path clip-path="url(#pdbd7d08f2d)" d="M 333.419886 246.2 
L 333.419886 26.8 
" style="fill:none;stroke:#b0b0b0;stroke-linecap:square;stroke-width:0.8;"/>
     </g>
     <g id="line2d_8">
      <g>
       <use style="stroke:#000000;stroke-width:0.8;" x="333.419886" xlink:href="#m2f0a270c36" y="246.2"/>
      </g>
     </g>
     <g id="text_4">
      <!-- 2020-11 -->
      <g transform="translate(312.52848 260.798437)scale(0.1 -0.1)">
       <use xlink:href="#DejaVuSans-50"/>
       <use x="63.623047" xlink:href="#DejaVuSans-48"/>
       <use x="127.246094" xlink:href="#DejaVuSans-50"/>
       <use x="190.869141" xlink:href="#DejaVuSans-48"/>
       <use x="254.492188" xlink:href="#DejaVuSans-45"/>
       <use x="290.576172" xlink:href="#DejaVuSans-49"/>
       <use x="354.199219" xlink:href="#DejaVuSans-49"/>
      </g>
     </g>
    </g>
    <g id="xtick_5">
     <g id="line2d_9">
      <path clip-path="url(#pdbd7d08f2d)" d="M 401.861095 246.2 
L 401.861095 26.8 
" style="fill:none;stroke:#b0b0b0;stroke-linecap:square;stroke-width:0.8;"/>
     </g>
     <g id="line2d_10">
      <g>
       <use style="stroke:#000000;stroke-width:0.8;" x="401.861095" xlink:href="#m2f0a270c36" y="246.2"/>
      </g>
     </g>
     <g id="text_5">
      <!-- 2020-12 -->
      <g transform="translate(380.969689 260.798437)scale(0.1 -0.1)">
       <use xlink:href="#DejaVuSans-50"/>
       <use x="63.623047" xlink:href="#DejaVuSans-48"/>
       <use x="127.246094" xlink:href="#DejaVuSans-50"/>
       <use x="190.869141" xlink:href="#DejaVuSans-48"/>
       <use x="254.492188" xlink:href="#DejaVuSans-45"/>
       <use x="290.576172" xlink:href="#DejaVuSans-49"/>
       <use x="354.199219" xlink:href="#DejaVuSans-50"/>
      </g>
     </g>
    </g>
    <g id="xtick_6">
     <g id="line2d_11">
      <path clip-path="url(#pdbd7d08f2d)" d="M 472.583677 246.2 
L 472.583677 26.8 
" style="fill:none;stroke:#b0b0b0;stroke-linecap:square;stroke-width:0.8;"/>
     </g>
     <g id="line2d_12">
      <g>
       <use style="stroke:#000000;stroke-width:0.8;" x="472.583677" xlink:href="#m2f0a270c36" y="246.2"/>
      </g>
     </g>
     <g id="text_6">
      <!-- 2021-01 -->
      <g transform="translate(451.692271 260.798437)scale(0.1 -0.1)">
       <use xlink:href="#DejaVuSans-50"/>
       <use x="63.623047" xlink:href="#DejaVuSans-48"/>
       <use x="127.246094" xlink:href="#DejaVuSans-50"/>
       <use x="190.869141" xlink:href="#DejaVuSans-49"/>
       <use x="254.492188" xlink:href="#DejaVuSans-45"/>
       <use x="290.576172" xlink:href="#DejaVuSans-48"/>
       <use x="354.199219" xlink:href="#DejaVuSans-49"/>
      </g>
     </g>
    </g>
    <g id="xtick_7">
     <g id="line2d_13">
      <path clip-path="url(#pdbd7d08f2d)" d="M 543.306259 246.2 
L 543.306259 26.8 
" style="fill:none;stroke:#b0b0b0;stroke-linecap:square;stroke-width:0.8;"/>
     </g>
     <g id="line2d_14">
      <g>
       <use style="stroke:#000000;stroke-width:0.8;" x="543.306259" xlink:href="#m2f0a270c36" y="246.2"/>
      </g>
     </g>
     <g id="text_7">
      <!-- 2021-02 -->
      <g transform="translate(522.414853 260.798437)scale(0.1 -0.1)">
       <use xlink:href="#DejaVuSans-50"/>
       <use x="63.623047" xlink:href="#DejaVuSans-48"/>
       <use x="127.246094" xlink:href="#DejaVuSans-50"/>
       <use x="190.869141" xlink:href="#DejaVuSans-49"/>
       <use x="254.492188" xlink:href="#DejaVuSans-45"/>
       <use x="290.576172" xlink:href="#DejaVuSans-48"/>
       <use x="354.199219" xlink:href="#DejaVuSans-50"/>
      </g>
     </g>
    </g>
    <g id="text_8">
     <!-- Date -->
     <defs>
      <path d="M 19.671875 64.796875 
L 19.671875 8.109375 
L 31.59375 8.109375 
Q 46.6875 8.109375 53.6875 14.9375 
Q 60.6875 21.78125 60.6875 36.53125 
Q 60.6875 51.171875 53.6875 57.984375 
Q 46.6875 64.796875 31.59375 64.796875 
z
M 9.8125 72.90625 
L 30.078125 72.90625 
Q 51.265625 72.90625 61.171875 64.09375 
Q 71.09375 55.28125 71.09375 36.53125 
Q 71.09375 17.671875 61.125 8.828125 
Q 51.171875 0 30.078125 0 
L 9.8125 0 
z
" id="DejaVuSans-68"/>
      <path d="M 34.28125 27.484375 
Q 23.390625 27.484375 19.1875 25 
Q 14.984375 22.515625 14.984375 16.5 
Q 14.984375 11.71875 18.140625 8.90625 
Q 21.296875 6.109375 26.703125 6.109375 
Q 34.1875 6.109375 38.703125 11.40625 
Q 43.21875 16.703125 43.21875 25.484375 
L 43.21875 27.484375 
z
M 52.203125 31.203125 
L 52.203125 0 
L 43.21875 0 
L 43.21875 8.296875 
Q 40.140625 3.328125 35.546875 0.953125 
Q 30.953125 -1.421875 24.3125 -1.421875 
Q 15.921875 -1.421875 10.953125 3.296875 
Q 6 8.015625 6 15.921875 
Q 6 25.140625 12.171875 29.828125 
Q 18.359375 34.515625 30.609375 34.515625 
L 43.21875 34.515625 
L 43.21875 35.40625 
Q 43.21875 41.609375 39.140625 45 
Q 35.0625 48.390625 27.6875 48.390625 
Q 23 48.390625 18.546875 47.265625 
Q 14.109375 46.140625 10.015625 43.890625 
L 10.015625 52.203125 
Q 14.9375 54.109375 19.578125 55.046875 
Q 24.21875 56 28.609375 56 
Q 40.484375 56 46.34375 49.84375 
Q 52.203125 43.703125 52.203125 31.203125 
z
" id="DejaVuSans-97"/>
      <path d="M 18.3125 70.21875 
L 18.3125 54.6875 
L 36.8125 54.6875 
L 36.8125 47.703125 
L 18.3125 47.703125 
L 18.3125 18.015625 
Q 18.3125 11.328125 20.140625 9.421875 
Q 21.96875 7.515625 27.59375 7.515625 
L 36.8125 7.515625 
L 36.8125 0 
L 27.59375 0 
Q 17.1875 0 13.234375 3.875 
Q 9.28125 7.765625 9.28125 18.015625 
L 9.28125 47.703125 
L 2.6875 47.703125 
L 2.6875 54.6875 
L 9.28125 54.6875 
L 9.28125 70.21875 
z
" id="DejaVuSans-116"/>
      <path d="M 56.203125 29.59375 
L 56.203125 25.203125 
L 14.890625 25.203125 
Q 15.484375 15.921875 20.484375 11.0625 
Q 25.484375 6.203125 34.421875 6.203125 
Q 39.59375 6.203125 44.453125 7.46875 
Q 49.3125 8.734375 54.109375 11.28125 
L 54.109375 2.78125 
Q 49.265625 0.734375 44.1875 -0.34375 
Q 39.109375 -1.421875 33.890625 -1.421875 
Q 20.796875 -1.421875 13.15625 6.1875 
Q 5.515625 13.8125 5.515625 26.8125 
Q 5.515625 40.234375 12.765625 48.109375 
Q 20.015625 56 32.328125 56 
Q 43.359375 56 49.78125 48.890625 
Q 56.203125 41.796875 56.203125 29.59375 
z
M 47.21875 32.234375 
Q 47.125 39.59375 43.09375 43.984375 
Q 39.0625 48.390625 32.421875 48.390625 
Q 24.90625 48.390625 20.390625 44.140625 
Q 15.875 39.890625 15.1875 32.171875 
z
" id="DejaVuSans-101"/>
     </defs>
     <g transform="translate(290.670561 274.476562)scale(0.1 -0.1)">
      <use xlink:href="#DejaVuSans-68"/>
      <use x="77.001953" xlink:href="#DejaVuSans-97"/>
      <use x="138.28125" xlink:href="#DejaVuSans-116"/>
      <use x="177.490234" xlink:href="#DejaVuSans-101"/>
     </g>
    </g>
   </g>
   <g id="matplotlib.axis_2">
    <g id="ytick_1">
     <g id="line2d_15">
      <path clip-path="url(#pdbd7d08f2d)" d="M 52.925 237.946969 
L 552.317685 237.946969 
" style="fill:none;stroke:#b0b0b0;stroke-linecap:square;stroke-width:0.8;"/>
     </g>
     <g id="line2d_16">
      <defs>
       <path d="M 0 0 
L -3.5 0 
" id="m1d0ef570d3" style="stroke:#000000;stroke-width:0.8;"/>
      </defs>
      <g>
       <use style="stroke:#000000;stroke-width:0.8;" x="52.925" xlink:href="#m1d0ef570d3" y="237.946969"/>
      </g>
     </g>
     <g id="text_9">
      <!-- −20 -->
      <defs>
       <path d="M 10.59375 35.5 
L 73.1875 35.5 
L 73.1875 27.203125 
L 10.59375 27.203125 
z
" id="DejaVuSans-8722"/>
      </defs>
      <g transform="translate(24.820312 241.746188)scale(0.1 -0.1)">
       <use xlink:href="#DejaVuSans-8722"/>
       <use x="83.789062" xlink:href="#DejaVuSans-50"/>
       <use x="147.412109" xlink:href="#DejaVuSans-48"/>
      </g>
     </g>
    </g>
    <g id="ytick_2">
     <g id="line2d_17">
      <path clip-path="url(#pdbd7d08f2d)" d="M 52.925 193.022686 
L 552.317685 193.022686 
" style="fill:none;stroke:#b0b0b0;stroke-linecap:square;stroke-width:0.8;"/>
     </g>
     <g id="line2d_18">
      <g>
       <use style="stroke:#000000;stroke-width:0.8;" x="52.925" xlink:href="#m1d0ef570d3" y="193.022686"/>
      </g>
     </g>
     <g id="text_10">
      <!-- −10 -->
      <g transform="translate(24.820312 196.821905)scale(0.1 -0.1)">
       <use xlink:href="#DejaVuSans-8722"/>
       <use x="83.789062" xlink:href="#DejaVuSans-49"/>
       <use x="147.412109" xlink:href="#DejaVuSans-48"/>
      </g>
     </g>
    </g>
    <g id="ytick_3">
     <g id="line2d_19">
      <path clip-path="url(#pdbd7d08f2d)" d="M 52.925 148.098403 
L 552.317685 148.098403 
" style="fill:none;stroke:#b0b0b0;stroke-linecap:square;stroke-width:0.8;"/>
     </g>
     <g id="line2d_20">
      <g>
       <use style="stroke:#000000;stroke-width:0.8;" x="52.925" xlink:href="#m1d0ef570d3" y="148.098403"/>
      </g>
     </g>
     <g id="text_11">
      <!-- 0 -->
      <g transform="translate(39.5625 151.897622)scale(0.1 -0.1)">
       <use xlink:href="#DejaVuSans-48"/>
      </g>
     </g>
    </g>
    <g id="ytick_4">
     <g id="line2d_21">
      <path clip-path="url(#pdbd7d08f2d)" d="M 52.925 103.17412 
L 552.317685 103.17412 
" style="fill:none;stroke:#b0b0b0;stroke-linecap:square;stroke-width:0.8;"/>
     </g>
     <g id="line2d_22">
      <g>
       <use style="stroke:#000000;stroke-width:0.8;" x="52.925" xlink:href="#m1d0ef570d3" y="103.17412"/>
      </g>
     </g>
     <g id="text_12">
      <!-- 10 -->
      <g transform="translate(33.2 106.973339)scale(0.1 -0.1)">
       <use xlink:href="#DejaVuSans-49"/>
       <use x="63.623047" xlink:href="#DejaVuSans-48"/>
      </g>
     </g>
    </g>
    <g id="ytick_5">
     <g id="line2d_23">
      <path clip-path="url(#pdbd7d08f2d)" d="M 52.925 58.249837 
L 552.317685 58.249837 
" style="fill:none;stroke:#b0b0b0;stroke-linecap:square;stroke-width:0.8;"/>
     </g>
     <g id="line2d_24">
      <g>
       <use style="stroke:#000000;stroke-width:0.8;" x="52.925" xlink:href="#m1d0ef570d3" y="58.249837"/>
      </g>
     </g>
     <g id="text_13">
      <!-- 20 -->
      <g transform="translate(33.2 62.049056)scale(0.1 -0.1)">
       <use xlink:href="#DejaVuSans-50"/>
       <use x="63.623047" xlink:href="#DejaVuSans-48"/>
      </g>
     </g>
    </g>
    <g id="text_14">
     <!-- Cum. sum -->
     <defs>
      <path d="M 64.40625 67.28125 
L 64.40625 56.890625 
Q 59.421875 61.53125 53.78125 63.8125 
Q 48.140625 66.109375 41.796875 66.109375 
Q 29.296875 66.109375 22.65625 58.46875 
Q 16.015625 50.828125 16.015625 36.375 
Q 16.015625 21.96875 22.65625 14.328125 
Q 29.296875 6.6875 41.796875 6.6875 
Q 48.140625 6.6875 53.78125 8.984375 
Q 59.421875 11.28125 64.40625 15.921875 
L 64.40625 5.609375 
Q 59.234375 2.09375 53.4375 0.328125 
Q 47.65625 -1.421875 41.21875 -1.421875 
Q 24.65625 -1.421875 15.125 8.703125 
Q 5.609375 18.84375 5.609375 36.375 
Q 5.609375 53.953125 15.125 64.078125 
Q 24.65625 74.21875 41.21875 74.21875 
Q 47.75 74.21875 53.53125 72.484375 
Q 59.328125 70.75 64.40625 67.28125 
z
" id="DejaVuSans-67"/>
      <path d="M 8.5 21.578125 
L 8.5 54.6875 
L 17.484375 54.6875 
L 17.484375 21.921875 
Q 17.484375 14.15625 20.5 10.265625 
Q 23.53125 6.390625 29.59375 6.390625 
Q 36.859375 6.390625 41.078125 11.03125 
Q 45.3125 15.671875 45.3125 23.6875 
L 45.3125 54.6875 
L 54.296875 54.6875 
L 54.296875 0 
L 45.3125 0 
L 45.3125 8.40625 
Q 42.046875 3.421875 37.71875 1 
Q 33.40625 -1.421875 27.6875 -1.421875 
Q 18.265625 -1.421875 13.375 4.4375 
Q 8.5 10.296875 8.5 21.578125 
z
M 31.109375 56 
z
" id="DejaVuSans-117"/>
      <path d="M 52 44.1875 
Q 55.375 50.25 60.0625 53.125 
Q 64.75 56 71.09375 56 
Q 79.640625 56 84.28125 50.015625 
Q 88.921875 44.046875 88.921875 33.015625 
L 88.921875 0 
L 79.890625 0 
L 79.890625 32.71875 
Q 79.890625 40.578125 77.09375 44.375 
Q 74.3125 48.1875 68.609375 48.1875 
Q 61.625 48.1875 57.5625 43.546875 
Q 53.515625 38.921875 53.515625 30.90625 
L 53.515625 0 
L 44.484375 0 
L 44.484375 32.71875 
Q 44.484375 40.625 41.703125 44.40625 
Q 38.921875 48.1875 33.109375 48.1875 
Q 26.21875 48.1875 22.15625 43.53125 
Q 18.109375 38.875 18.109375 30.90625 
L 18.109375 0 
L 9.078125 0 
L 9.078125 54.6875 
L 18.109375 54.6875 
L 18.109375 46.1875 
Q 21.1875 51.21875 25.484375 53.609375 
Q 29.78125 56 35.6875 56 
Q 41.65625 56 45.828125 52.96875 
Q 50 49.953125 52 44.1875 
z
" id="DejaVuSans-109"/>
      <path d="M 10.6875 12.40625 
L 21 12.40625 
L 21 0 
L 10.6875 0 
z
" id="DejaVuSans-46"/>
      <path id="DejaVuSans-32"/>
      <path d="M 44.28125 53.078125 
L 44.28125 44.578125 
Q 40.484375 46.53125 36.375 47.5 
Q 32.28125 48.484375 27.875 48.484375 
Q 21.1875 48.484375 17.84375 46.4375 
Q 14.5 44.390625 14.5 40.28125 
Q 14.5 37.15625 16.890625 35.375 
Q 19.28125 33.59375 26.515625 31.984375 
L 29.59375 31.296875 
Q 39.15625 29.25 43.1875 25.515625 
Q 47.21875 21.78125 47.21875 15.09375 
Q 47.21875 7.46875 41.1875 3.015625 
Q 35.15625 -1.421875 24.609375 -1.421875 
Q 20.21875 -1.421875 15.453125 -0.5625 
Q 10.6875 0.296875 5.421875 2 
L 5.421875 11.28125 
Q 10.40625 8.6875 15.234375 7.390625 
Q 20.0625 6.109375 24.8125 6.109375 
Q 31.15625 6.109375 34.5625 8.28125 
Q 37.984375 10.453125 37.984375 14.40625 
Q 37.984375 18.0625 35.515625 20.015625 
Q 33.0625 21.96875 24.703125 23.78125 
L 21.578125 24.515625 
Q 13.234375 26.265625 9.515625 29.90625 
Q 5.8125 33.546875 5.8125 39.890625 
Q 5.8125 47.609375 11.28125 51.796875 
Q 16.75 56 26.8125 56 
Q 31.78125 56 36.171875 55.265625 
Q 40.578125 54.546875 44.28125 53.078125 
z
" id="DejaVuSans-115"/>
     </defs>
     <g transform="translate(18.740625 161.852344)rotate(-90)scale(0.1 -0.1)">
      <use xlink:href="#DejaVuSans-67"/>
      <use x="69.824219" xlink:href="#DejaVuSans-117"/>
      <use x="133.203125" xlink:href="#DejaVuSans-109"/>
      <use x="230.615234" xlink:href="#DejaVuSans-46"/>
      <use x="262.402344" xlink:href="#DejaVuSans-32"/>
      <use x="294.189453" xlink:href="#DejaVuSans-115"/>
      <use x="346.289062" xlink:href="#DejaVuSans-117"/>
      <use x="409.667969" xlink:href="#DejaVuSans-109"/>
     </g>
    </g>
   </g>
   <g id="line2d_25">
    <path clip-path="url(#pdbd7d08f2d)" d="M 75.624668 143.517893 
L 77.906041 142.279914 
L 80.187415 140.874809 
L 82.468788 143.530258 
L 84.750162 147.065491 
L 87.031536 146.896461 
L 89.312909 140.58307 
L 91.594283 141.849543 
L 93.875656 138.213384 
L 96.15703 139.290057 
L 98.438404 136.556945 
L 100.719777 137.793041 
L 103.001151 133.534365 
L 105.282525 140.797196 
L 107.563898 136.326756 
L 109.845272 144.119941 
L 112.126645 140.663248 
L 114.408019 136.024045 
L 116.689393 138.590805 
L 118.970766 135.937532 
L 121.25214 133.991544 
L 123.533513 133.744764 
L 125.814887 141.849755 
L 130.377634 140.188047 
L 132.659008 139.809449 
L 134.940382 138.791402 
L 137.221755 132.99181 
L 139.503129 133.911909 
L 141.784502 134.978364 
L 144.065876 138.822246 
L 146.34725 133.244943 
L 148.628623 134.434023 
L 150.909997 138.68891 
L 153.191371 137.893843 
L 155.472744 141.989264 
L 157.754118 141.047437 
L 160.035491 139.014238 
L 162.316865 137.614918 
L 164.598239 141.962326 
L 166.879612 152.348696 
L 169.160986 156.232145 
L 171.442359 152.122691 
L 173.723733 145.581206 
L 176.005107 145.172718 
L 178.28648 153.069806 
L 180.567854 155.161232 
L 185.130601 157.813377 
L 187.411975 156.303678 
L 189.693348 157.714955 
L 191.974722 156.214688 
L 194.256096 155.362036 
L 196.537469 151.984783 
L 198.818843 155.809196 
L 201.100216 148.707164 
L 203.38159 145.607937 
L 205.662964 150.748883 
L 207.944337 143.50688 
L 210.225711 147.493027 
L 212.507085 141.877257 
L 214.788458 138.629473 
L 217.069832 141.541872 
L 219.351205 138.654992 
L 221.632579 138.739295 
L 223.913953 137.384967 
L 226.195326 134.939478 
L 230.758074 132.515502 
L 233.039447 130.153522 
L 235.320821 127.028675 
L 237.602194 117.487229 
L 239.883568 115.979068 
L 242.164942 115.852213 
L 244.446315 113.14655 
L 246.727689 112.496196 
L 249.009062 107.099024 
L 251.290436 111.075993 
L 253.57181 111.683863 
L 255.853183 113.431628 
L 258.134557 111.524394 
L 260.415931 115.453911 
L 262.697304 120.594238 
L 264.978678 114.597031 
L 267.260051 120.310322 
L 269.541425 116.439087 
L 271.822799 108.919136 
L 274.104172 98.327535 
L 276.385546 103.346062 
L 278.66692 104.61286 
L 280.948293 104.334471 
L 283.229667 103.298498 
L 285.51104 108.99668 
L 287.792414 113.47577 
L 290.073788 112.67574 
L 292.355161 118.594599 
L 294.636535 120.688589 
L 296.917908 119.122186 
L 299.199282 123.851059 
L 301.480656 111.497243 
L 303.762029 114.243561 
L 306.043403 120.596312 
L 308.324777 120.125205 
L 310.60615 120.629881 
L 315.168897 118.298116 
L 317.450271 117.696365 
L 319.731645 115.139102 
L 322.013018 115.039758 
L 324.294392 119.055558 
L 326.575765 119.614694 
L 328.857139 121.651325 
L 331.138513 122.01432 
L 333.419886 129.72878 
L 337.982634 138.646466 
L 340.264007 137.319823 
L 342.545381 138.904444 
L 344.826754 144.179385 
L 347.108128 146.853829 
L 349.389502 146.926707 
L 351.670875 149.515647 
L 353.952249 151.557025 
L 356.233623 150.383369 
L 358.514996 149.579674 
L 360.79637 149.257643 
L 363.077743 153.098864 
L 365.359117 144.528292 
L 367.640491 140.412961 
L 369.921864 147.499228 
L 372.203238 158.041177 
L 374.484611 158.454392 
L 376.765985 163.30667 
L 379.047359 162.546626 
L 381.328732 159.667965 
L 383.610106 160.844793 
L 385.89148 169.125186 
L 388.172853 172.877168 
L 390.454227 175.80152 
L 392.7356 176.369839 
L 395.016974 177.509818 
L 397.298348 176.767032 
L 399.579721 173.025642 
L 401.861095 172.057323 
L 404.142469 166.328209 
L 406.423842 159.708683 
L 408.705216 156.350569 
L 410.986589 152.23491 
L 413.267963 149.325299 
L 415.549337 150.289734 
L 417.83071 158.042002 
L 420.112084 153.385833 
L 422.393457 155.680558 
L 424.674831 158.383963 
L 426.956205 156.779395 
L 429.237578 157.988954 
L 431.518952 154.371238 
L 433.800326 153.270671 
L 436.081699 162.570785 
L 438.363073 157.180617 
L 440.644446 169.152745 
L 442.92582 163.319554 
L 445.207194 166.852672 
L 447.488567 165.052917 
L 449.769941 168.539825 
L 452.051314 160.90506 
L 454.332688 163.870393 
L 456.614062 160.161568 
L 461.176809 158.604253 
L 463.458183 164.203564 
L 465.739556 168.632454 
L 468.02093 168.179932 
L 470.302303 172.831099 
L 472.583677 173.542181 
L 474.865051 174.59981 
L 477.146424 168.097184 
L 479.427798 164.465181 
L 481.709172 161.386421 
L 483.990545 160.406916 
L 486.271919 159.662686 
L 488.553292 169.365411 
L 490.834666 166.937895 
L 493.11604 164.855945 
L 495.397413 167.381003 
L 497.678787 171.205402 
L 499.96016 165.115055 
L 502.241534 165.780798 
L 504.522908 167.198426 
L 506.804281 159.879888 
L 509.085655 157.00742 
L 511.367029 164.000845 
L 513.648402 166.531416 
L 515.929776 172.270396 
L 518.211149 167.93764 
L 520.492523 166.107445 
L 522.773897 166.768121 
L 525.05527 169.93923 
L 527.336644 170.478903 
L 529.618018 163.386488 
L 529.618018 163.386488 
" style="fill:none;stroke:#1f77b4;stroke-linecap:square;stroke-width:2;"/>
   </g>
   <g id="line2d_26">
    <path clip-path="url(#pdbd7d08f2d)" d="M 75.624668 145.80234 
L 77.906041 144.802339 
L 80.187415 148.075556 
L 82.468788 150.899051 
L 84.750162 148.58766 
L 87.031536 151.800501 
L 89.312909 143.922069 
L 91.594283 146.960561 
L 93.875656 148.101096 
L 96.15703 154.157492 
L 98.438404 155.258464 
L 100.719777 162.336054 
L 103.001151 156.133557 
L 105.282525 150.886828 
L 107.563898 149.938062 
L 109.845272 152.775678 
L 112.126645 149.737448 
L 114.408019 149.260542 
L 116.689393 149.533562 
L 118.970766 154.376523 
L 121.25214 145.63542 
L 123.533513 154.218697 
L 125.814887 149.710925 
L 128.096261 143.736483 
L 130.377634 150.442273 
L 132.659008 151.002414 
L 134.940382 144.384931 
L 137.221755 143.215492 
L 139.503129 141.575318 
L 141.784502 144.418072 
L 144.065876 146.352144 
L 146.34725 149.557743 
L 148.628623 153.73213 
L 150.909997 151.006254 
L 153.191371 143.812681 
L 155.472744 145.417913 
L 157.754118 144.905806 
L 160.035491 159.927857 
L 162.316865 157.462507 
L 164.598239 161.150044 
L 166.879612 160.821233 
L 169.160986 160.923919 
L 171.442359 160.900621 
L 173.723733 157.211303 
L 176.005107 154.252072 
L 178.28648 150.590805 
L 180.567854 155.048973 
L 182.849228 150.011657 
L 185.130601 148.521864 
L 187.411975 147.914427 
L 189.693348 149.627249 
L 196.537469 154.124781 
L 198.818843 153.380085 
L 201.100216 152.942755 
L 205.662964 142.43564 
L 207.944337 144.021752 
L 210.225711 136.104989 
L 212.507085 135.897617 
L 214.788458 134.485353 
L 217.069832 139.151227 
L 219.351205 133.053643 
L 221.632579 134.214415 
L 223.913953 134.93778 
L 226.195326 134.471804 
L 228.4767 132.148037 
L 233.039447 141.402951 
L 235.320821 137.124137 
L 237.602194 137.342312 
L 239.883568 126.400327 
L 242.164942 130.480776 
L 244.446315 128.279896 
L 246.727689 133.184858 
L 249.009062 131.421894 
L 251.290436 126.431756 
L 253.57181 126.792303 
L 255.853183 126.445066 
L 258.134557 136.792325 
L 260.415931 141.451448 
L 262.697304 138.269053 
L 264.978678 135.967246 
L 267.260051 129.905903 
L 269.541425 130.498629 
L 271.822799 131.364408 
L 274.104172 129.480275 
L 276.385546 136.455311 
L 278.66692 137.67878 
L 280.948293 139.395735 
L 283.229667 140.756614 
L 285.51104 139.936179 
L 287.792414 140.542428 
L 290.073788 140.304918 
L 292.355161 138.613101 
L 294.636535 138.750536 
L 296.917908 141.451113 
L 299.199282 135.546859 
L 301.480656 136.553164 
L 303.762029 139.46975 
L 306.043403 140.364369 
L 308.324777 135.829207 
L 310.60615 139.307065 
L 312.887524 137.908092 
L 315.168897 141.45582 
L 317.450271 137.960588 
L 319.731645 146.782365 
L 322.013018 140.374779 
L 324.294392 142.374854 
L 326.575765 144.931081 
L 328.857139 151.619571 
L 331.138513 145.862809 
L 333.419886 141.367822 
L 335.70126 147.606518 
L 337.982634 148.84545 
L 340.264007 144.955871 
L 342.545381 147.783041 
L 344.826754 152.456335 
L 347.108128 159.238892 
L 349.389502 158.760855 
L 351.670875 159.416811 
L 353.952249 159.853651 
L 356.233623 157.26479 
L 358.514996 167.126947 
L 360.79637 167.80272 
L 363.077743 169.90315 
L 365.359117 172.960923 
L 367.640491 171.547186 
L 369.921864 173.013871 
L 372.203238 174.990348 
L 374.484611 180.757387 
L 376.765985 190.68649 
L 379.047359 189.744753 
L 381.328732 196.256527 
L 383.610106 198.422363 
L 385.89148 197.890163 
L 388.172853 200.620722 
L 390.454227 201.09839 
L 392.7356 201.300369 
L 395.016974 206.245665 
L 397.298348 205.61049 
L 399.579721 214.670902 
L 401.861095 213.176862 
L 404.142469 217.055671 
L 406.423842 215.290553 
L 408.705216 217.473562 
L 410.986589 213.925854 
L 413.267963 213.16702 
L 415.549337 214.835006 
L 417.83071 215.356613 
L 420.112084 214.840679 
L 422.393457 214.149421 
L 424.674831 208.107253 
L 426.956205 204.104763 
L 429.237578 203.881841 
L 431.518952 210.024786 
L 433.800326 209.874244 
L 436.081699 215.142523 
L 438.363073 208.649911 
L 440.644446 208.833814 
L 442.92582 206.511285 
L 447.488567 197.229896 
L 449.769941 200.247509 
L 452.051314 197.179789 
L 454.332688 199.546134 
L 456.614062 198.783834 
L 458.895435 198.154775 
L 461.176809 200.695521 
L 463.458183 205.828121 
L 465.739556 214.996102 
L 468.02093 211.686098 
L 470.302303 207.684623 
L 472.583677 205.797768 
L 474.865051 215.163835 
L 477.146424 216.446562 
L 479.427798 214.406822 
L 481.709172 212.802834 
L 483.990545 221.418371 
L 486.271919 220.104308 
L 488.553292 218.636527 
L 490.834666 218.906616 
L 493.11604 219.777342 
L 495.397413 218.812687 
L 497.678787 218.189846 
L 499.96016 223.015595 
L 502.241534 221.308306 
L 504.522908 219.360275 
L 506.804281 220.307765 
L 509.085655 221.82369 
L 511.367029 224.882377 
L 513.648402 221.029311 
L 515.929776 228.096778 
L 518.211149 228.761858 
L 520.492523 228.364537 
L 522.773897 230.195715 
L 525.05527 236.227273 
L 527.336644 233.728352 
L 529.618018 235.643483 
L 529.618018 235.643483 
" style="fill:none;stroke:#ff7f0e;stroke-linecap:square;stroke-width:2;"/>
   </g>
   <g id="line2d_27">
    <path clip-path="url(#pdbd7d08f2d)" d="M 75.624668 152.63986 
L 77.906041 148.671585 
L 80.187415 146.471658 
L 82.468788 143.292599 
L 84.750162 140.591165 
L 87.031536 143.065209 
L 89.312909 144.8148 
L 91.594283 144.041402 
L 93.875656 138.116185 
L 96.15703 137.786373 
L 98.438404 136.428556 
L 100.719777 138.307807 
L 103.001151 145.424628 
L 105.282525 140.882029 
L 107.563898 144.572379 
L 109.845272 145.923834 
L 112.126645 145.842307 
L 114.408019 145.551915 
L 116.689393 142.237682 
L 118.970766 142.874036 
L 121.25214 141.762349 
L 123.533513 128.947771 
L 125.814887 121.931983 
L 128.096261 117.289243 
L 130.377634 125.222962 
L 132.659008 132.356169 
L 134.940382 136.032872 
L 137.221755 147.691932 
L 139.503129 141.513376 
L 141.784502 143.708347 
L 144.065876 144.013664 
L 146.34725 137.284395 
L 148.628623 126.123273 
L 150.909997 117.203097 
L 153.191371 122.363025 
L 155.472744 114.639737 
L 157.754118 113.971993 
L 160.035491 107.384361 
L 162.316865 109.100252 
L 164.598239 112.520254 
L 166.879612 108.230528 
L 169.160986 117.55601 
L 171.442359 117.727006 
L 173.723733 115.258766 
L 176.005107 122.976134 
L 178.28648 126.72686 
L 180.567854 125.893016 
L 182.849228 118.557948 
L 185.130601 121.610145 
L 187.411975 124.068886 
L 189.693348 122.938094 
L 191.974722 113.106358 
L 194.256096 117.339225 
L 196.537469 116.796031 
L 198.818843 110.048567 
L 201.100216 112.745016 
L 203.38159 117.506133 
L 205.662964 121.05949 
L 207.944337 125.028112 
L 210.225711 127.668857 
L 212.507085 122.325694 
L 214.788458 116.674404 
L 217.069832 114.457493 
L 219.351205 110.286155 
L 221.632579 108.021839 
L 223.913953 111.151261 
L 226.195326 106.230872 
L 228.4767 106.557698 
L 230.758074 106.200012 
L 233.039447 112.778769 
L 235.320821 110.224441 
L 237.602194 110.657911 
L 239.883568 105.010018 
L 242.164942 111.399557 
L 244.446315 105.636033 
L 246.727689 108.454597 
L 249.009062 96.256888 
L 251.290436 96.321386 
L 253.57181 87.48047 
L 255.853183 85.530038 
L 258.134557 83.178118 
L 260.415931 79.227197 
L 262.697304 82.197754 
L 264.978678 81.44242 
L 267.260051 74.28798 
L 269.541425 71.96105 
L 271.822799 71.332695 
L 274.104172 77.520843 
L 276.385546 72.804128 
L 278.66692 74.525237 
L 280.948293 76.910166 
L 283.229667 73.765043 
L 285.51104 71.238335 
L 287.792414 71.824531 
L 290.073788 73.862263 
L 292.355161 63.055301 
L 294.636535 65.521579 
L 296.917908 67.76999 
L 299.199282 72.208804 
L 301.480656 70.283095 
L 303.762029 68.07575 
L 306.043403 73.39917 
L 308.324777 79.103761 
L 310.60615 76.915101 
L 312.887524 80.781642 
L 315.168897 83.988245 
L 317.450271 87.794506 
L 319.731645 87.526774 
L 322.013018 88.259383 
L 324.294392 87.891611 
L 326.575765 86.888295 
L 328.857139 90.806479 
L 331.138513 92.634901 
L 333.419886 94.315658 
L 335.70126 87.776868 
L 337.982634 85.956423 
L 340.264007 75.897116 
L 342.545381 75.835088 
L 344.826754 72.811139 
L 347.108128 67.134867 
L 349.389502 70.358376 
L 351.670875 69.159309 
L 353.952249 71.036568 
L 356.233623 65.907348 
L 358.514996 61.873138 
L 363.077743 48.504123 
L 365.359117 56.028266 
L 367.640491 56.156516 
L 369.921864 55.436106 
L 372.203238 57.924484 
L 374.484611 49.49749 
L 376.765985 51.334588 
L 379.047359 51.270191 
L 381.328732 53.158292 
L 383.610106 53.098543 
L 385.89148 53.671259 
L 388.172853 48.724354 
L 390.454227 50.484392 
L 395.016974 52.112757 
L 397.298348 52.016154 
L 399.579721 57.457557 
L 401.861095 60.112144 
L 404.142469 64.315365 
L 406.423842 66.835096 
L 408.705216 56.970967 
L 410.986589 66.066545 
L 413.267963 63.293603 
L 415.549337 61.988712 
L 417.83071 61.454002 
L 420.112084 60.45191 
L 422.393457 59.198113 
L 424.674831 57.58819 
L 426.956205 63.401737 
L 429.237578 56.118324 
L 431.518952 55.934684 
L 433.800326 56.58346 
L 436.081699 44.446054 
L 438.363073 45.395062 
L 440.644446 51.995145 
L 442.92582 47.089689 
L 445.207194 40.573441 
L 447.488567 36.772727 
L 449.769941 41.810558 
L 452.051314 43.614336 
L 454.332688 53.076044 
L 456.614062 51.55246 
L 458.895435 49.8122 
L 461.176809 47.175763 
L 463.458183 51.511133 
L 465.739556 52.589845 
L 468.02093 51.339234 
L 470.302303 51.980457 
L 472.583677 49.134682 
L 474.865051 43.363669 
L 477.146424 41.620705 
L 481.709172 51.888718 
L 483.990545 56.290131 
L 486.271919 52.583307 
L 490.834666 67.891561 
L 493.11604 64.324344 
L 495.397413 69.329874 
L 497.678787 72.536209 
L 499.96016 72.671751 
L 502.241534 72.042908 
L 504.522908 74.532671 
L 506.804281 73.751707 
L 509.085655 78.610049 
L 511.367029 81.957699 
L 513.648402 81.134907 
L 515.929776 81.252255 
L 518.211149 78.177295 
L 520.492523 83.214811 
L 522.773897 87.121407 
L 525.05527 82.943939 
L 529.618018 92.624882 
L 529.618018 92.624882 
" style="fill:none;stroke:#2ca02c;stroke-linecap:square;stroke-width:2;"/>
   </g>
   <g id="patch_3">
    <path d="M 52.925 246.2 
L 52.925 26.8 
" style="fill:none;stroke:#000000;stroke-linecap:square;stroke-linejoin:miter;stroke-width:0.8;"/>
   </g>
   <g id="patch_4">
    <path d="M 552.317685 246.2 
L 552.317685 26.8 
" style="fill:none;stroke:#000000;stroke-linecap:square;stroke-linejoin:miter;stroke-width:0.8;"/>
   </g>
   <g id="patch_5">
    <path d="M 52.925 246.2 
L 552.317685 246.2 
" style="fill:none;stroke:#000000;stroke-linecap:square;stroke-linejoin:miter;stroke-width:0.8;"/>
   </g>
   <g id="patch_6">
    <path d="M 52.925 26.8 
L 552.317685 26.8 
" style="fill:none;stroke:#000000;stroke-linecap:square;stroke-linejoin:miter;stroke-width:0.8;"/>
   </g>
   <g id="text_15">
    <!-- Random trends -->
    <defs>
     <path d="M 44.390625 34.1875 
Q 47.5625 33.109375 50.5625 29.59375 
Q 53.5625 26.078125 56.59375 19.921875 
L 66.609375 0 
L 56 0 
L 46.6875 18.703125 
Q 43.0625 26.03125 39.671875 28.421875 
Q 36.28125 30.8125 30.421875 30.8125 
L 19.671875 30.8125 
L 19.671875 0 
L 9.8125 0 
L 9.8125 72.90625 
L 32.078125 72.90625 
Q 44.578125 72.90625 50.734375 67.671875 
Q 56.890625 62.453125 56.890625 51.90625 
Q 56.890625 45.015625 53.6875 40.46875 
Q 50.484375 35.9375 44.390625 34.1875 
z
M 19.671875 64.796875 
L 19.671875 38.921875 
L 32.078125 38.921875 
Q 39.203125 38.921875 42.84375 42.21875 
Q 46.484375 45.515625 46.484375 51.90625 
Q 46.484375 58.296875 42.84375 61.546875 
Q 39.203125 64.796875 32.078125 64.796875 
z
" id="DejaVuSans-82"/>
     <path d="M 54.890625 33.015625 
L 54.890625 0 
L 45.90625 0 
L 45.90625 32.71875 
Q 45.90625 40.484375 42.875 44.328125 
Q 39.84375 48.1875 33.796875 48.1875 
Q 26.515625 48.1875 22.3125 43.546875 
Q 18.109375 38.921875 18.109375 30.90625 
L 18.109375 0 
L 9.078125 0 
L 9.078125 54.6875 
L 18.109375 54.6875 
L 18.109375 46.1875 
Q 21.34375 51.125 25.703125 53.5625 
Q 30.078125 56 35.796875 56 
Q 45.21875 56 50.046875 50.171875 
Q 54.890625 44.34375 54.890625 33.015625 
z
" id="DejaVuSans-110"/>
     <path d="M 45.40625 46.390625 
L 45.40625 75.984375 
L 54.390625 75.984375 
L 54.390625 0 
L 45.40625 0 
L 45.40625 8.203125 
Q 42.578125 3.328125 38.25 0.953125 
Q 33.9375 -1.421875 27.875 -1.421875 
Q 17.96875 -1.421875 11.734375 6.484375 
Q 5.515625 14.40625 5.515625 27.296875 
Q 5.515625 40.1875 11.734375 48.09375 
Q 17.96875 56 27.875 56 
Q 33.9375 56 38.25 53.625 
Q 42.578125 51.265625 45.40625 46.390625 
z
M 14.796875 27.296875 
Q 14.796875 17.390625 18.875 11.75 
Q 22.953125 6.109375 30.078125 6.109375 
Q 37.203125 6.109375 41.296875 11.75 
Q 45.40625 17.390625 45.40625 27.296875 
Q 45.40625 37.203125 41.296875 42.84375 
Q 37.203125 48.484375 30.078125 48.484375 
Q 22.953125 48.484375 18.875 42.84375 
Q 14.796875 37.203125 14.796875 27.296875 
z
" id="DejaVuSans-100"/>
     <path d="M 30.609375 48.390625 
Q 23.390625 48.390625 19.1875 42.75 
Q 14.984375 37.109375 14.984375 27.296875 
Q 14.984375 17.484375 19.15625 11.84375 
Q 23.34375 6.203125 30.609375 6.203125 
Q 37.796875 6.203125 41.984375 11.859375 
Q 46.1875 17.53125 46.1875 27.296875 
Q 46.1875 37.015625 41.984375 42.703125 
Q 37.796875 48.390625 30.609375 48.390625 
z
M 30.609375 56 
Q 42.328125 56 49.015625 48.375 
Q 55.71875 40.765625 55.71875 27.296875 
Q 55.71875 13.875 49.015625 6.21875 
Q 42.328125 -1.421875 30.609375 -1.421875 
Q 18.84375 -1.421875 12.171875 6.21875 
Q 5.515625 13.875 5.515625 27.296875 
Q 5.515625 40.765625 12.171875 48.375 
Q 18.84375 56 30.609375 56 
z
" id="DejaVuSans-111"/>
     <path d="M 41.109375 46.296875 
Q 39.59375 47.171875 37.8125 47.578125 
Q 36.03125 48 33.890625 48 
Q 26.265625 48 22.1875 43.046875 
Q 18.109375 38.09375 18.109375 28.8125 
L 18.109375 0 
L 9.078125 0 
L 9.078125 54.6875 
L 18.109375 54.6875 
L 18.109375 46.1875 
Q 20.953125 51.171875 25.484375 53.578125 
Q 30.03125 56 36.53125 56 
Q 37.453125 56 38.578125 55.875 
Q 39.703125 55.765625 41.0625 55.515625 
z
" id="DejaVuSans-114"/>
    </defs>
    <g transform="translate(256.76353 20.8)scale(0.12 -0.12)">
     <use xlink:href="#DejaVuSans-82"/>
     <use x="67.232422" xlink:href="#DejaVuSans-97"/>
     <use x="128.511719" xlink:href="#DejaVuSans-110"/>
     <use x="191.890625" xlink:href="#DejaVuSans-100"/>
     <use x="255.367188" xlink:href="#DejaVuSans-111"/>
     <use x="316.548828" xlink:href="#DejaVuSans-109"/>
     <use x="413.960938" xlink:href="#DejaVuSans-32"/>
     <use x="445.748047" xlink:href="#DejaVuSans-116"/>
     <use x="484.957031" xlink:href="#DejaVuSans-114"/>
     <use x="523.820312" xlink:href="#DejaVuSans-101"/>
     <use x="585.34375" xlink:href="#DejaVuSans-110"/>
     <use x="648.722656" xlink:href="#DejaVuSans-100"/>
     <use x="712.199219" xlink:href="#DejaVuSans-115"/>
    </g>
   </g>
   <g id="legend_1">
    <g id="patch_7">
     <path d="M 504.785924 70.277394 
L 546.486685 70.277394 
Q 548.152685 70.277394 548.152685 68.611394 
L 548.152685 32.631 
Q 548.152685 30.965 546.486685 30.965 
L 504.785924 30.965 
Q 503.119924 30.965 503.119924 32.631 
L 503.119924 68.611394 
Q 503.119924 70.277394 504.785924 70.277394 
z
" style="fill:#ffffff;opacity:0.5;stroke:#cccccc;stroke-linejoin:miter;"/>
    </g>
    <g id="line2d_28">
     <path d="M 506.451924 37.755252 
L 523.111924 37.755252 
" style="fill:none;stroke:#1f77b4;stroke-linecap:square;stroke-width:2;"/>
    </g>
    <g id="line2d_29"/>
    <g id="text_16">
     <!-- foo -->
     <defs>
      <path d="M 51.90625 75.984375 
L 51.90625 68.5 
L 41.703125 68.5 
Q 36.859375 68.5 34.984375 66.515625 
Q 33.109375 64.546875 33.109375 59.515625 
L 33.109375 54.6875 
L 51.90625 54.6875 
L 51.90625 47.703125 
L 33.109375 47.703125 
L 33.109375 0 
L 24.125 0 
L 24.125 47.703125 
L 9.515625 47.703125 
L 9.515625 54.6875 
L 24.125 54.6875 
L 24.125 58.5 
Q 24.125 67.484375 28.25 71.734375 
Q 32.375 75.984375 41.109375 75.984375 
z
" id="DejaVuSansMono-102"/>
      <path d="M 30.078125 48.390625 
Q 23.25 48.390625 19.734375 43.0625 
Q 16.21875 37.75 16.21875 27.296875 
Q 16.21875 16.890625 19.734375 11.546875 
Q 23.25 6.203125 30.078125 6.203125 
Q 36.96875 6.203125 40.484375 11.546875 
Q 44 16.890625 44 27.296875 
Q 44 37.75 40.484375 43.0625 
Q 36.96875 48.390625 30.078125 48.390625 
z
M 30.078125 56 
Q 41.453125 56 47.484375 48.625 
Q 53.515625 41.265625 53.515625 27.296875 
Q 53.515625 13.28125 47.5 5.921875 
Q 41.5 -1.421875 30.078125 -1.421875 
Q 18.703125 -1.421875 12.6875 5.921875 
Q 6.6875 13.28125 6.6875 27.296875 
Q 6.6875 41.265625 12.6875 48.625 
Q 18.703125 56 30.078125 56 
z
" id="DejaVuSansMono-111"/>
     </defs>
     <g transform="translate(529.775924 40.670752)scale(0.0833 -0.0833)">
      <use xlink:href="#DejaVuSansMono-102"/>
      <use x="60.205078" xlink:href="#DejaVuSansMono-111"/>
      <use x="120.410156" xlink:href="#DejaVuSansMono-111"/>
     </g>
    </g>
    <g id="line2d_30">
     <path d="M 506.451924 50.026383 
L 523.111924 50.026383 
" style="fill:none;stroke:#ff7f0e;stroke-linecap:square;stroke-width:2;"/>
    </g>
    <g id="line2d_31"/>
    <g id="text_17">
     <!-- bar -->
     <defs>
      <path d="M 44.828125 27.296875 
Q 44.828125 37.75 41.5 43.0625 
Q 38.1875 48.390625 31.6875 48.390625 
Q 25.140625 48.390625 21.765625 43.046875 
Q 18.40625 37.703125 18.40625 27.296875 
Q 18.40625 16.9375 21.765625 11.5625 
Q 25.140625 6.203125 31.6875 6.203125 
Q 38.1875 6.203125 41.5 11.515625 
Q 44.828125 16.84375 44.828125 27.296875 
z
M 18.40625 47.703125 
Q 20.5625 51.703125 24.34375 53.84375 
Q 28.125 56 33.109375 56 
Q 42.96875 56 48.625 48.40625 
Q 54.296875 40.828125 54.296875 27.484375 
Q 54.296875 13.96875 48.609375 6.265625 
Q 42.921875 -1.421875 33.015625 -1.421875 
Q 28.125 -1.421875 24.390625 0.703125 
Q 20.65625 2.828125 18.40625 6.890625 
L 18.40625 0 
L 9.421875 0 
L 9.421875 75.984375 
L 18.40625 75.984375 
z
" id="DejaVuSansMono-98"/>
      <path d="M 34.28125 27.484375 
L 31.296875 27.484375 
Q 23.4375 27.484375 19.453125 24.71875 
Q 15.484375 21.96875 15.484375 16.5 
Q 15.484375 11.578125 18.453125 8.84375 
Q 21.4375 6.109375 26.703125 6.109375 
Q 34.125 6.109375 38.375 11.25 
Q 42.625 16.40625 42.671875 25.484375 
L 42.671875 27.484375 
z
M 51.703125 31.203125 
L 51.703125 0 
L 42.671875 0 
L 42.671875 8.109375 
Q 39.796875 3.21875 35.421875 0.890625 
Q 31.0625 -1.421875 24.8125 -1.421875 
Q 16.453125 -1.421875 11.46875 3.296875 
Q 6.5 8.015625 6.5 15.921875 
Q 6.5 25.046875 12.625 29.78125 
Q 18.75 34.515625 30.609375 34.515625 
L 42.671875 34.515625 
L 42.671875 35.9375 
Q 42.625 42.484375 39.34375 45.4375 
Q 36.078125 48.390625 28.90625 48.390625 
Q 24.3125 48.390625 19.625 47.0625 
Q 14.9375 45.75 10.5 43.21875 
L 10.5 52.203125 
Q 15.484375 54.109375 20.046875 55.046875 
Q 24.609375 56 28.90625 56 
Q 35.6875 56 40.5 54 
Q 45.3125 52 48.296875 48 
Q 50.140625 45.5625 50.921875 41.96875 
Q 51.703125 38.375 51.703125 31.203125 
z
" id="DejaVuSansMono-97"/>
      <path d="M 56.390625 43.40625 
Q 53.515625 45.65625 50.53125 46.671875 
Q 47.5625 47.703125 44 47.703125 
Q 35.59375 47.703125 31.140625 42.421875 
Q 26.703125 37.15625 26.703125 27.203125 
L 26.703125 0 
L 17.671875 0 
L 17.671875 54.6875 
L 26.703125 54.6875 
L 26.703125 44 
Q 28.953125 49.8125 33.609375 52.90625 
Q 38.28125 56 44.671875 56 
Q 48 56 50.875 55.171875 
Q 53.765625 54.34375 56.390625 52.59375 
z
" id="DejaVuSansMono-114"/>
     </defs>
     <g transform="translate(529.775924 52.941883)scale(0.0833 -0.0833)">
      <use xlink:href="#DejaVuSansMono-98"/>
      <use x="60.205078" xlink:href="#DejaVuSansMono-97"/>
      <use x="120.410156" xlink:href="#DejaVuSansMono-114"/>
     </g>
    </g>
    <g id="line2d_32">
     <path d="M 506.451924 62.297514 
L 523.111924 62.297514 
" style="fill:none;stroke:#2ca02c;stroke-linecap:square;stroke-width:2;"/>
    </g>
    <g id="line2d_33"/>
    <g id="text_18">
     <!-- baz -->
     <defs>
      <path d="M 11.078125 54.78125 
L 50.78125 54.78125 
L 50.78125 46.578125 
L 19.390625 7.328125 
L 50.78125 7.328125 
L 50.78125 0 
L 9.90625 0 
L 9.90625 8.296875 
L 41.3125 47.609375 
L 11.078125 47.609375 
z
" id="DejaVuSansMono-122"/>
     </defs>
     <g transform="translate(529.775924 65.213014)scale(0.0833 -0.0833)">
      <use xlink:href="#DejaVuSansMono-98"/>
      <use x="60.205078" xlink:href="#DejaVuSansMono-97"/>
      <use x="120.410156" xlink:href="#DejaVuSansMono-122"/>
     </g>
    </g>
   </g>
  </g>
  <g id="text_19">
   <!-- Innovation™ -->
   <defs>
    <path d="M 9.8125 72.90625 
L 19.671875 72.90625 
L 19.671875 0 
L 9.8125 0 
z
" id="DejaVuSans-73"/>
    <path d="M 2.984375 54.6875 
L 12.5 54.6875 
L 29.59375 8.796875 
L 46.6875 54.6875 
L 56.203125 54.6875 
L 35.6875 0 
L 23.484375 0 
z
" id="DejaVuSans-118"/>
    <path d="M 9.421875 54.6875 
L 18.40625 54.6875 
L 18.40625 0 
L 9.421875 0 
z
M 9.421875 75.984375 
L 18.40625 75.984375 
L 18.40625 64.59375 
L 9.421875 64.59375 
z
" id="DejaVuSans-105"/>
    <path d="M 53.609375 72.90625 
L 62.109375 60.40625 
L 70.125 72.90625 
L 78.421875 72.90625 
L 78.421875 44.671875 
L 72.90625 44.671875 
L 72.90625 68.3125 
L 63.375 53.515625 
L 60.6875 53.515625 
L 50.78125 68.3125 
L 50.78125 44.671875 
L 45.21875 44.671875 
L 45.21875 72.90625 
z
M 39.703125 72.90625 
L 39.703125 68.3125 
L 29.78125 68.3125 
L 29.78125 44.671875 
L 24.21875 44.671875 
L 24.21875 68.3125 
L 14.40625 68.3125 
L 14.40625 72.90625 
z
" id="DejaVuSans-8482"/>
   </defs>
   <g transform="translate(510.174688 283.040313)scale(0.1 -0.1)">
    <use xlink:href="#DejaVuSans-73"/>
    <use x="29.492188" xlink:href="#DejaVuSans-110"/>
    <use x="92.871094" xlink:href="#DejaVuSans-110"/>
    <use x="156.25" xlink:href="#DejaVuSans-111"/>
    <use x="217.431641" xlink:href="#DejaVuSans-118"/>
    <use x="276.611328" xlink:href="#DejaVuSans-97"/>
    <use x="337.890625" xlink:href="#DejaVuSans-116"/>
    <use x="377.099609" xlink:href="#DejaVuSans-105"/>
    <use x="404.882812" xlink:href="#DejaVuSans-111"/>
    <use x="466.064453" xlink:href="#DejaVuSans-110"/>
    <use x="529.443359" xlink:href="#DejaVuSans-8482"/>
   </g>
  </g>
 </g>
 <defs>
  <clipPath id="pdbd7d08f2d">
   <rect height="219.4" width="499.392685" x="52.925" y="26.8"/>
  </clipPath>
 </defs>
</svg>
